<mxfile host="app.diagrams.net" agent="Mozilla/5.0 (Windows NT 10.0; Win64; x64) AppleWebKit/537.36 (KHTML, like Gecko) Chrome/134.0.0.0 Safari/537.36" version="26.1.1">
  <diagram name="Página-1" id="IFzxkyfsY522zyvqdF0z">
    <mxGraphModel dx="1764" dy="991" grid="1" gridSize="10" guides="1" tooltips="1" connect="1" arrows="1" fold="1" page="1" pageScale="1" pageWidth="827" pageHeight="1169" math="0" shadow="0">
      <root>
        <mxCell id="0" />
        <mxCell id="1" parent="0" />
        <mxCell id="_ULa5M9hV-Zaz9lBCNT5-3" value="" style="edgeStyle=orthogonalEdgeStyle;rounded=0;orthogonalLoop=1;jettySize=auto;html=1;" edge="1" parent="1" source="ar20y08fn7H_0S6bk-3K-1" target="_ULa5M9hV-Zaz9lBCNT5-2">
          <mxGeometry relative="1" as="geometry" />
        </mxCell>
        <mxCell id="ar20y08fn7H_0S6bk-3K-1" value="inicio" style="ellipse;whiteSpace=wrap;html=1;" parent="1" vertex="1">
          <mxGeometry x="42.5" y="10" width="110" height="60" as="geometry" />
        </mxCell>
        <mxCell id="_ULa5M9hV-Zaz9lBCNT5-13" value="" style="edgeStyle=orthogonalEdgeStyle;rounded=0;orthogonalLoop=1;jettySize=auto;html=1;" edge="1" parent="1" source="ar20y08fn7H_0S6bk-3K-3" target="ar20y08fn7H_0S6bk-3K-5">
          <mxGeometry relative="1" as="geometry" />
        </mxCell>
        <mxCell id="ar20y08fn7H_0S6bk-3K-3" value="menu de opções" style="shape=display;whiteSpace=wrap;html=1;" parent="1" vertex="1">
          <mxGeometry x="35" y="340" width="115" height="60" as="geometry" />
        </mxCell>
        <mxCell id="ar20y08fn7H_0S6bk-3K-4" value="opção" style="html=1;strokeWidth=2;shape=manualInput;whiteSpace=wrap;rounded=1;size=26;arcSize=11;" parent="1" vertex="1">
          <mxGeometry x="42.5" y="420" width="100" height="60" as="geometry" />
        </mxCell>
        <mxCell id="_ULa5M9hV-Zaz9lBCNT5-36" value="" style="edgeStyle=orthogonalEdgeStyle;rounded=0;orthogonalLoop=1;jettySize=auto;html=1;" edge="1" parent="1" source="ar20y08fn7H_0S6bk-3K-5" target="ar20y08fn7H_0S6bk-3K-7">
          <mxGeometry relative="1" as="geometry" />
        </mxCell>
        <mxCell id="_ULa5M9hV-Zaz9lBCNT5-44" value="" style="edgeStyle=orthogonalEdgeStyle;rounded=0;orthogonalLoop=1;jettySize=auto;html=1;" edge="1" parent="1" source="ar20y08fn7H_0S6bk-3K-5" target="ar20y08fn7H_0S6bk-3K-15">
          <mxGeometry relative="1" as="geometry" />
        </mxCell>
        <mxCell id="ar20y08fn7H_0S6bk-3K-5" value="opcao==1" style="rhombus;whiteSpace=wrap;html=1;" parent="1" vertex="1">
          <mxGeometry x="55" y="495" width="80" height="80" as="geometry" />
        </mxCell>
        <mxCell id="_ULa5M9hV-Zaz9lBCNT5-45" value="" style="edgeStyle=orthogonalEdgeStyle;rounded=0;orthogonalLoop=1;jettySize=auto;html=1;" edge="1" parent="1" source="ar20y08fn7H_0S6bk-3K-6" target="ar20y08fn7H_0S6bk-3K-16">
          <mxGeometry relative="1" as="geometry" />
        </mxCell>
        <mxCell id="ar20y08fn7H_0S6bk-3K-6" value="opcao==2" style="rhombus;whiteSpace=wrap;html=1;" parent="1" vertex="1">
          <mxGeometry x="55" y="585" width="80" height="80" as="geometry" />
        </mxCell>
        <mxCell id="_ULa5M9hV-Zaz9lBCNT5-43" value="" style="edgeStyle=orthogonalEdgeStyle;rounded=0;orthogonalLoop=1;jettySize=auto;html=1;" edge="1" parent="1" source="ar20y08fn7H_0S6bk-3K-7" target="ar20y08fn7H_0S6bk-3K-9">
          <mxGeometry relative="1" as="geometry" />
        </mxCell>
        <mxCell id="_ULa5M9hV-Zaz9lBCNT5-46" value="" style="edgeStyle=orthogonalEdgeStyle;rounded=0;orthogonalLoop=1;jettySize=auto;html=1;" edge="1" parent="1" source="ar20y08fn7H_0S6bk-3K-7" target="ar20y08fn7H_0S6bk-3K-14">
          <mxGeometry relative="1" as="geometry" />
        </mxCell>
        <mxCell id="ar20y08fn7H_0S6bk-3K-7" value="opcao==3" style="rhombus;whiteSpace=wrap;html=1;" parent="1" vertex="1">
          <mxGeometry x="55" y="670" width="80" height="80" as="geometry" />
        </mxCell>
        <mxCell id="_ULa5M9hV-Zaz9lBCNT5-40" value="" style="edgeStyle=orthogonalEdgeStyle;rounded=0;orthogonalLoop=1;jettySize=auto;html=1;" edge="1" parent="1" source="ar20y08fn7H_0S6bk-3K-9" target="ar20y08fn7H_0S6bk-3K-10">
          <mxGeometry relative="1" as="geometry" />
        </mxCell>
        <mxCell id="_ULa5M9hV-Zaz9lBCNT5-47" value="" style="edgeStyle=orthogonalEdgeStyle;rounded=0;orthogonalLoop=1;jettySize=auto;html=1;" edge="1" parent="1" source="ar20y08fn7H_0S6bk-3K-8" target="ar20y08fn7H_0S6bk-3K-13">
          <mxGeometry relative="1" as="geometry" />
        </mxCell>
        <mxCell id="ar20y08fn7H_0S6bk-3K-8" value="opcap==4" style="rhombus;whiteSpace=wrap;html=1;" parent="1" vertex="1">
          <mxGeometry x="52" y="760" width="80" height="80" as="geometry" />
        </mxCell>
        <mxCell id="ar20y08fn7H_0S6bk-3K-11" value="liberarLista(Pedido **head)" style="shape=process;whiteSpace=wrap;html=1;backgroundOutline=1;" parent="1" vertex="1">
          <mxGeometry x="162.5" y="960" width="120" height="60" as="geometry" />
        </mxCell>
        <mxCell id="_ULa5M9hV-Zaz9lBCNT5-72" value="" style="edgeStyle=orthogonalEdgeStyle;rounded=0;orthogonalLoop=1;jettySize=auto;html=1;" edge="1" parent="1" source="ar20y08fn7H_0S6bk-3K-12" target="_ULa5M9hV-Zaz9lBCNT5-69">
          <mxGeometry relative="1" as="geometry" />
        </mxCell>
        <mxCell id="ar20y08fn7H_0S6bk-3K-12" value="deletarPedido(Pedido** head, int numero)&amp;nbsp;" style="shape=process;whiteSpace=wrap;html=1;backgroundOutline=1;" parent="1" vertex="1">
          <mxGeometry x="157.5" y="860" width="215" height="60" as="geometry" />
        </mxCell>
        <mxCell id="ar20y08fn7H_0S6bk-3K-13" value="&amp;nbsp;atualizarStatusPedido(Pedido* head, int numero)" style="shape=process;whiteSpace=wrap;html=1;backgroundOutline=1;" parent="1" vertex="1">
          <mxGeometry x="157.5" y="770" width="215" height="60" as="geometry" />
        </mxCell>
        <mxCell id="ar20y08fn7H_0S6bk-3K-14" value="obterPedido(Pedido* head, int numero)&amp;nbsp;" style="shape=process;whiteSpace=wrap;html=1;backgroundOutline=1;" parent="1" vertex="1">
          <mxGeometry x="170" y="680" width="120" height="60" as="geometry" />
        </mxCell>
        <mxCell id="ar20y08fn7H_0S6bk-3K-15" value="inserirPedido(Pedido** head, Pedido* novo)" style="shape=process;whiteSpace=wrap;html=1;backgroundOutline=1;" parent="1" vertex="1">
          <mxGeometry x="162.5" y="505" width="177.5" height="60" as="geometry" />
        </mxCell>
        <mxCell id="ar20y08fn7H_0S6bk-3K-16" value="exibirPedidos(Pedido* head)" style="shape=process;whiteSpace=wrap;html=1;backgroundOutline=1;" parent="1" vertex="1">
          <mxGeometry x="162.5" y="595" width="177.5" height="60" as="geometry" />
        </mxCell>
        <mxCell id="ar20y08fn7H_0S6bk-3K-17" value="fim" style="ellipse;whiteSpace=wrap;html=1;" parent="1" vertex="1">
          <mxGeometry x="37.5" y="1109" width="110" height="60" as="geometry" />
        </mxCell>
        <mxCell id="_ULa5M9hV-Zaz9lBCNT5-12" value="" style="edgeStyle=orthogonalEdgeStyle;rounded=0;orthogonalLoop=1;jettySize=auto;html=1;" edge="1" parent="1">
          <mxGeometry relative="1" as="geometry">
            <mxPoint x="91.22" y="230" as="sourcePoint" />
            <mxPoint x="93.72" y="340" as="targetPoint" />
            <Array as="points">
              <mxPoint x="91.72" y="285" />
              <mxPoint x="93.72" y="285" />
            </Array>
          </mxGeometry>
        </mxCell>
        <mxCell id="ar20y08fn7H_0S6bk-3K-18" value="struct pedido { numero&amp;nbsp;&lt;div&gt;cliente&lt;/div&gt;&lt;div&gt;descricao&lt;/div&gt;&lt;div&gt;quantidade&lt;/div&gt;&lt;div&gt;status&amp;nbsp;&lt;/div&gt;&lt;div&gt;struct Pedido* prox }&lt;/div&gt;" style="rounded=0;whiteSpace=wrap;html=1;" parent="1" vertex="1">
          <mxGeometry x="37.5" y="210" width="120" height="100" as="geometry" />
        </mxCell>
        <mxCell id="_ULa5M9hV-Zaz9lBCNT5-5" value="" style="edgeStyle=orthogonalEdgeStyle;rounded=0;orthogonalLoop=1;jettySize=auto;html=1;" edge="1" parent="1" source="ar20y08fn7H_0S6bk-3K-19" target="ar20y08fn7H_0S6bk-3K-25">
          <mxGeometry relative="1" as="geometry" />
        </mxCell>
        <mxCell id="ar20y08fn7H_0S6bk-3K-19" value="inserirPedido(Pedido** head, Pedido* novo)" style="ellipse;whiteSpace=wrap;html=1;" parent="1" vertex="1">
          <mxGeometry x="550" y="550" width="180" height="60" as="geometry" />
        </mxCell>
        <mxCell id="ar20y08fn7H_0S6bk-3K-20" value="novo-&amp;gt;prox= *head;" style="rounded=0;whiteSpace=wrap;html=1;" parent="1" vertex="1">
          <mxGeometry x="587" y="630" width="120" height="60" as="geometry" />
        </mxCell>
        <mxCell id="ar20y08fn7H_0S6bk-3K-22" value="fim" style="ellipse;whiteSpace=wrap;html=1;" parent="1" vertex="1">
          <mxGeometry x="587" y="790" width="110" height="60" as="geometry" />
        </mxCell>
        <mxCell id="_ULa5M9hV-Zaz9lBCNT5-7" value="" style="edgeStyle=orthogonalEdgeStyle;rounded=0;orthogonalLoop=1;jettySize=auto;html=1;" edge="1" parent="1" source="ar20y08fn7H_0S6bk-3K-25" target="ar20y08fn7H_0S6bk-3K-22">
          <mxGeometry relative="1" as="geometry" />
        </mxCell>
        <mxCell id="ar20y08fn7H_0S6bk-3K-25" value="head = novo;" style="rounded=0;whiteSpace=wrap;html=1;" parent="1" vertex="1">
          <mxGeometry x="582" y="710" width="120" height="60" as="geometry" />
        </mxCell>
        <mxCell id="_ULa5M9hV-Zaz9lBCNT5-1" value="Pedido* head = NULL;&amp;nbsp;" style="rounded=0;whiteSpace=wrap;html=1;" vertex="1" parent="1">
          <mxGeometry x="37.5" y="90" width="120" height="40" as="geometry" />
        </mxCell>
        <mxCell id="_ULa5M9hV-Zaz9lBCNT5-10" value="" style="edgeStyle=orthogonalEdgeStyle;rounded=0;orthogonalLoop=1;jettySize=auto;html=1;" edge="1" parent="1" source="_ULa5M9hV-Zaz9lBCNT5-2" target="ar20y08fn7H_0S6bk-3K-18">
          <mxGeometry relative="1" as="geometry" />
        </mxCell>
        <mxCell id="_ULa5M9hV-Zaz9lBCNT5-2" value="int opcao;" style="rounded=0;whiteSpace=wrap;html=1;" vertex="1" parent="1">
          <mxGeometry x="37.5" y="150" width="120" height="40" as="geometry" />
        </mxCell>
        <mxCell id="_ULa5M9hV-Zaz9lBCNT5-39" value="" style="edgeStyle=orthogonalEdgeStyle;rounded=0;orthogonalLoop=1;jettySize=auto;html=1;" edge="1" parent="1" source="ar20y08fn7H_0S6bk-3K-9" target="ar20y08fn7H_0S6bk-3K-10">
          <mxGeometry relative="1" as="geometry">
            <mxPoint x="92" y="946" as="sourcePoint" />
            <mxPoint x="93" y="1040" as="targetPoint" />
          </mxGeometry>
        </mxCell>
        <mxCell id="_ULa5M9hV-Zaz9lBCNT5-49" value="" style="edgeStyle=orthogonalEdgeStyle;rounded=0;orthogonalLoop=1;jettySize=auto;html=1;" edge="1" parent="1" source="ar20y08fn7H_0S6bk-3K-10" target="ar20y08fn7H_0S6bk-3K-11">
          <mxGeometry relative="1" as="geometry" />
        </mxCell>
        <mxCell id="_ULa5M9hV-Zaz9lBCNT5-66" value="" style="edgeStyle=orthogonalEdgeStyle;rounded=0;orthogonalLoop=1;jettySize=auto;html=1;" edge="1" parent="1" source="ar20y08fn7H_0S6bk-3K-10" target="_ULa5M9hV-Zaz9lBCNT5-65">
          <mxGeometry relative="1" as="geometry" />
        </mxCell>
        <mxCell id="ar20y08fn7H_0S6bk-3K-10" value="opcao==6" style="rhombus;whiteSpace=wrap;html=1;" parent="1" vertex="1">
          <mxGeometry x="52" y="950" width="80" height="80" as="geometry" />
        </mxCell>
        <mxCell id="_ULa5M9hV-Zaz9lBCNT5-42" value="" style="edgeStyle=orthogonalEdgeStyle;rounded=0;orthogonalLoop=1;jettySize=auto;html=1;" edge="1" parent="1" source="ar20y08fn7H_0S6bk-3K-8" target="ar20y08fn7H_0S6bk-3K-9">
          <mxGeometry relative="1" as="geometry">
            <mxPoint x="95" y="830" as="sourcePoint" />
            <mxPoint x="92" y="950" as="targetPoint" />
          </mxGeometry>
        </mxCell>
        <mxCell id="_ULa5M9hV-Zaz9lBCNT5-48" value="" style="edgeStyle=orthogonalEdgeStyle;rounded=0;orthogonalLoop=1;jettySize=auto;html=1;" edge="1" parent="1" source="ar20y08fn7H_0S6bk-3K-9" target="ar20y08fn7H_0S6bk-3K-12">
          <mxGeometry relative="1" as="geometry" />
        </mxCell>
        <mxCell id="ar20y08fn7H_0S6bk-3K-9" value="opcao==5" style="rhombus;whiteSpace=wrap;html=1;" parent="1" vertex="1">
          <mxGeometry x="52.5" y="850" width="80" height="80" as="geometry" />
        </mxCell>
        <mxCell id="_ULa5M9hV-Zaz9lBCNT5-67" value="" style="edgeStyle=orthogonalEdgeStyle;rounded=0;orthogonalLoop=1;jettySize=auto;html=1;" edge="1" parent="1" source="_ULa5M9hV-Zaz9lBCNT5-65" target="ar20y08fn7H_0S6bk-3K-17">
          <mxGeometry relative="1" as="geometry" />
        </mxCell>
        <mxCell id="_ULa5M9hV-Zaz9lBCNT5-65" value="" style="ellipse;whiteSpace=wrap;html=1;aspect=fixed;fillColor=#000000;" vertex="1" parent="1">
          <mxGeometry x="84.5" y="1060" width="15" height="15" as="geometry" />
        </mxCell>
        <mxCell id="_ULa5M9hV-Zaz9lBCNT5-73" style="edgeStyle=orthogonalEdgeStyle;rounded=0;orthogonalLoop=1;jettySize=auto;html=1;exitX=0;exitY=0.5;exitDx=0;exitDy=0;" edge="1" parent="1" source="_ULa5M9hV-Zaz9lBCNT5-68">
          <mxGeometry relative="1" as="geometry">
            <mxPoint x="440" y="980" as="targetPoint" />
          </mxGeometry>
        </mxCell>
        <mxCell id="_ULa5M9hV-Zaz9lBCNT5-68" value="" style="ellipse;whiteSpace=wrap;html=1;aspect=fixed;fillColor=#000000;" vertex="1" parent="1">
          <mxGeometry x="430" y="980" width="15" height="15" as="geometry" />
        </mxCell>
        <mxCell id="_ULa5M9hV-Zaz9lBCNT5-70" value="" style="edgeStyle=orthogonalEdgeStyle;rounded=0;orthogonalLoop=1;jettySize=auto;html=1;" edge="1" parent="1" source="_ULa5M9hV-Zaz9lBCNT5-69" target="_ULa5M9hV-Zaz9lBCNT5-68">
          <mxGeometry relative="1" as="geometry" />
        </mxCell>
        <mxCell id="_ULa5M9hV-Zaz9lBCNT5-69" value="" style="ellipse;whiteSpace=wrap;html=1;aspect=fixed;fillColor=#000000;" vertex="1" parent="1">
          <mxGeometry x="430" y="882.5" width="15" height="15" as="geometry" />
        </mxCell>
        <mxCell id="_ULa5M9hV-Zaz9lBCNT5-71" value="" style="endArrow=none;html=1;rounded=0;exitX=1;exitY=0.5;exitDx=0;exitDy=0;" edge="1" parent="1" source="_ULa5M9hV-Zaz9lBCNT5-65">
          <mxGeometry width="50" height="50" relative="1" as="geometry">
            <mxPoint x="130" y="1070" as="sourcePoint" />
            <mxPoint x="440" y="980" as="targetPoint" />
            <Array as="points">
              <mxPoint x="370" y="1070" />
              <mxPoint x="440" y="1070" />
            </Array>
          </mxGeometry>
        </mxCell>
        <mxCell id="_ULa5M9hV-Zaz9lBCNT5-74" value="" style="endArrow=none;html=1;rounded=0;entryX=0;entryY=0.5;entryDx=0;entryDy=0;" edge="1" parent="1" target="_ULa5M9hV-Zaz9lBCNT5-68">
          <mxGeometry width="50" height="50" relative="1" as="geometry">
            <mxPoint x="283" y="988" as="sourcePoint" />
            <mxPoint x="390" y="950" as="targetPoint" />
          </mxGeometry>
        </mxCell>
        <mxCell id="_ULa5M9hV-Zaz9lBCNT5-82" value="" style="edgeStyle=orthogonalEdgeStyle;rounded=0;orthogonalLoop=1;jettySize=auto;html=1;" edge="1" parent="1" source="_ULa5M9hV-Zaz9lBCNT5-75" target="_ULa5M9hV-Zaz9lBCNT5-69">
          <mxGeometry relative="1" as="geometry" />
        </mxCell>
        <mxCell id="_ULa5M9hV-Zaz9lBCNT5-75" value="" style="ellipse;whiteSpace=wrap;html=1;aspect=fixed;fillColor=#000000;" vertex="1" parent="1">
          <mxGeometry x="430" y="792.5" width="15" height="15" as="geometry" />
        </mxCell>
        <mxCell id="_ULa5M9hV-Zaz9lBCNT5-81" value="" style="edgeStyle=orthogonalEdgeStyle;rounded=0;orthogonalLoop=1;jettySize=auto;html=1;" edge="1" parent="1" source="_ULa5M9hV-Zaz9lBCNT5-76" target="_ULa5M9hV-Zaz9lBCNT5-75">
          <mxGeometry relative="1" as="geometry" />
        </mxCell>
        <mxCell id="_ULa5M9hV-Zaz9lBCNT5-76" value="" style="ellipse;whiteSpace=wrap;html=1;aspect=fixed;fillColor=#000000;" vertex="1" parent="1">
          <mxGeometry x="430" y="712.5" width="15" height="15" as="geometry" />
        </mxCell>
        <mxCell id="_ULa5M9hV-Zaz9lBCNT5-80" value="" style="edgeStyle=orthogonalEdgeStyle;rounded=0;orthogonalLoop=1;jettySize=auto;html=1;" edge="1" parent="1" source="_ULa5M9hV-Zaz9lBCNT5-77" target="_ULa5M9hV-Zaz9lBCNT5-76">
          <mxGeometry relative="1" as="geometry" />
        </mxCell>
        <mxCell id="_ULa5M9hV-Zaz9lBCNT5-77" value="" style="ellipse;whiteSpace=wrap;html=1;aspect=fixed;fillColor=#000000;" vertex="1" parent="1">
          <mxGeometry x="430" y="620" width="15" height="15" as="geometry" />
        </mxCell>
        <mxCell id="_ULa5M9hV-Zaz9lBCNT5-83" value="" style="edgeStyle=orthogonalEdgeStyle;rounded=0;orthogonalLoop=1;jettySize=auto;html=1;" edge="1" parent="1">
          <mxGeometry relative="1" as="geometry">
            <mxPoint x="373" y="799.67" as="sourcePoint" />
            <mxPoint x="430" y="799.67" as="targetPoint" />
          </mxGeometry>
        </mxCell>
        <mxCell id="_ULa5M9hV-Zaz9lBCNT5-86" value="" style="edgeStyle=orthogonalEdgeStyle;rounded=0;orthogonalLoop=1;jettySize=auto;html=1;entryX=0;entryY=0.5;entryDx=0;entryDy=0;" edge="1" parent="1" target="_ULa5M9hV-Zaz9lBCNT5-76">
          <mxGeometry relative="1" as="geometry">
            <mxPoint x="290" y="719.67" as="sourcePoint" />
            <mxPoint x="347" y="719.67" as="targetPoint" />
          </mxGeometry>
        </mxCell>
        <mxCell id="_ULa5M9hV-Zaz9lBCNT5-87" value="" style="edgeStyle=orthogonalEdgeStyle;rounded=0;orthogonalLoop=1;jettySize=auto;html=1;entryX=0;entryY=0.5;entryDx=0;entryDy=0;" edge="1" parent="1" target="_ULa5M9hV-Zaz9lBCNT5-77">
          <mxGeometry relative="1" as="geometry">
            <mxPoint x="340" y="630" as="sourcePoint" />
            <mxPoint x="397" y="630" as="targetPoint" />
            <Array as="points">
              <mxPoint x="340" y="631" />
              <mxPoint x="385" y="631" />
              <mxPoint x="385" y="627" />
            </Array>
          </mxGeometry>
        </mxCell>
        <mxCell id="_ULa5M9hV-Zaz9lBCNT5-89" value="" style="endArrow=none;html=1;rounded=0;" edge="1" parent="1">
          <mxGeometry width="50" height="50" relative="1" as="geometry">
            <mxPoint x="340" y="539.79" as="sourcePoint" />
            <mxPoint x="440" y="540" as="targetPoint" />
          </mxGeometry>
        </mxCell>
        <mxCell id="_ULa5M9hV-Zaz9lBCNT5-98" value="" style="endArrow=none;html=1;rounded=0;exitX=0.5;exitY=0;exitDx=0;exitDy=0;" edge="1" parent="1" source="_ULa5M9hV-Zaz9lBCNT5-77">
          <mxGeometry width="50" height="50" relative="1" as="geometry">
            <mxPoint x="350" y="544.79" as="sourcePoint" />
            <mxPoint x="440" y="540" as="targetPoint" />
          </mxGeometry>
        </mxCell>
      </root>
    </mxGraphModel>
  </diagram>
</mxfile>
